<svg xmlns="http://www.w3.org/2000/svg" version="1.1" xmlns:xlink="http://www.w3.org/1999/xlink" xmlns:svgjs="http://svgjs.dev/svgjs" width="1500" height="450" viewBox="0 0 1500 450"><g transform="matrix(1,0,0,1,-0.9090909090909918,-0.8357229240496622)"><svg viewBox="0 0 396 119" data-background-color="#ffffff" preserveAspectRatio="xMidYMid meet" height="450" width="1500" xmlns="http://www.w3.org/2000/svg" xmlns:xlink="http://www.w3.org/1999/xlink"><g id="tight-bounds" transform="matrix(1,0,0,1,0.2400000000000091,0.22115163096924562)"><svg viewBox="0 0 395.52 118.55784608467093" height="118.55784608467093" width="395.52"><g><svg viewBox="0 0 397.4975999999999 119.15063531509426" height="118.55784608467093" width="395.52"><g><rect width="397.4975999999999" height="3.649426589787635" x="0" y="65.47995124625783" fill="#b4ddcf" opacity="1" stroke-width="0" stroke="transparent" fill-opacity="1" class="rect-qz-0" data-fill-palette-color="secondary" rx="1%" id="qz-0" data-palette-color="#b4ddcf"></rect></g><g transform="matrix(1,0,0,1,0.9887999999999693,78.68285058418063)"><svg viewBox="0 0 395.52 40.46778473091364" height="40.46778473091364" width="395.52"><g id="textblocktransform"><svg viewBox="0 0 395.52 40.46778473091364" height="40.46778473091364" width="395.52" id="textblock"><g><svg viewBox="0 0 395.52 40.46778473091364" height="40.46778473091364" width="395.52"><g transform="matrix(1,0,0,1,0,0)"><svg width="395.52" viewBox="2.08 -38.23 390.1 39.91" height="40.46778473091364" data-palette-color="#000000"><path d="M8.74 0.88L8.74 0.78Q8.86-1 8.98-2.66 9.11-4.32 9.2-5.88L9.2-5.88 10.08-17.41Q10.23-18.73 10.33-19.81 10.42-20.9 10.49-21.94 10.55-22.97 10.61-24.04 10.67-25.1 10.74-26.39L10.74-26.39Q9.94-26.42 9.05-26.42 8.15-26.42 7.18-26.42L7.18-26.42 2.47-26.42Q2.2-26.42 2.14-26.62 2.08-26.83 2.08-27L2.08-27 2.08-27.17 4.76-34.23 4.74-34.33Q4.74-34.45 4.9-34.53 5.05-34.62 5.62-34.67L5.62-34.67Q8.98-34.86 12.15-35.05 15.31-35.23 18.4-35.38 21.48-35.52 24.57-35.67 27.66-35.82 30.93-35.94L30.93-35.94Q31.23-35.94 31.56-35.86 31.88-35.79 31.88-35.33L31.88-35.33Q31.88-35.28 31.86-35.23 31.84-35.18 31.84-35.13L31.84-35.13Q31.45-34.13 31.12-33.23 30.79-32.32 30.47-31.45 30.15-30.57 29.82-29.66 29.49-28.76 29.1-27.76L29.1-27.76Q29.08-27.73 29-27.53 28.93-27.32 28.78-27.06 28.64-26.81 28.39-26.59 28.15-26.37 27.78-26.34L27.78-26.34Q27.66-26.37 27.54-26.37 27.42-26.37 27.27-26.37L27.27-26.37 20.75-26.37Q20.63-25.12 20.52-23.73 20.41-22.34 20.26-21.02L20.26-21.02 18.48-1.95Q18.46-1.73 18.4-1.51 18.33-1.29 18.07-1.2L18.07-1.2 11.16 1.29Q10.89 1.39 10.45 1.54 10.01 1.68 9.59 1.68L9.59 1.68Q9.25 1.68 9 1.51 8.74 1.34 8.74 0.88L8.74 0.88ZM53.68-32.15L53.68-32.15Q53.68-33.03 53.84-33.36 54-33.69 54.49-33.81L54.49-33.81 62.89-35.84Q63.21-35.94 63.55-35.94L63.55-35.94Q63.89-35.94 64.01-35.73 64.13-35.52 64.13-34.89L64.13-34.89 63.84-31.05Q63.72-29.37 63.57-27.71 63.43-26.05 63.13-24.8L63.13-24.8 62.69-21.34Q62.5-19.8 62.33-18.01 62.16-16.21 61.96-13.99L61.96-13.99 60.81-1.95Q60.79-1.73 60.72-1.51 60.64-1.29 60.4-1.2L60.4-1.2Q60.23-1.12 59.6-0.88 58.98-0.63 58.13-0.32 57.27 0 56.3 0.35 55.32 0.71 54.44 1 53.56 1.29 52.88 1.49 52.19 1.68 51.95 1.68L51.95 1.68Q51.61 1.68 51.35 1.5 51.1 1.32 51.1 0.81L51.1 0.81Q51.1-2.15 51.44-5.24 51.78-8.33 52.05-11.38L52.05-11.38Q52.1-11.72 52.08-12.01 52.07-12.3 52.12-12.65L52.12-12.65 43.19-12.65 42.19-1.95Q42.16-1.73 42.1-1.53 42.04-1.32 41.77-1.2L41.77-1.2Q41.67-1.15 40.81-0.84 39.94-0.54 38.8-0.13 37.67 0.27 36.56 0.67 35.45 1.07 34.86 1.29L34.86 1.29Q34.57 1.42 34.14 1.55 33.71 1.68 33.3 1.68L33.3 1.68Q32.96 1.68 32.7 1.49 32.44 1.29 32.44 0.78L32.44 0.78Q32.44-0.39 32.53-1.89 32.61-3.39 32.74-5.04 32.86-6.69 33.03-8.42 33.2-10.16 33.37-11.84L33.37-11.84 33.42-12.55Q31.44-12.55 30.55-12.66 29.66-12.77 29.66-13.23L29.66-13.23Q29.66-13.55 30.03-14.06L30.03-14.06Q30.52-14.75 31.16-15.71 31.81-16.67 32.41-17.61 33.01-18.55 33.48-19.3 33.96-20.04 34.1-20.26L34.1-20.26 34.67-26.15Q34.67-26.2 34.71-26.88 34.76-27.56 34.84-28.5 34.91-29.44 35-30.44 35.08-31.45 35.15-32.15L35.15-32.15Q35.2-33.01 35.29-33.35 35.37-33.69 35.86-33.81L35.86-33.81 44.16-35.84Q44.48-35.94 44.82-35.94L44.82-35.94Q45.16-35.94 45.29-35.73 45.41-35.52 45.41-34.89L45.41-34.89Q45.24-33.13 45.14-31.69 45.04-30.25 44.93-29 44.82-27.76 44.7-26.64 44.58-25.51 44.36-24.34L44.36-24.34 43.87-20.56 52.73-20.65Q52.95-23.9 53.22-26.17 53.49-28.44 53.56-29.76L53.56-29.76Q53.64-31.01 53.66-31.54 53.68-32.08 53.68-32.15ZM89.03-20.26L89.03-20.26Q88.94-19.92 88.67-19.3 88.4-18.68 88.04-17.9 87.69-17.11 87.29-16.22 86.88-15.33 86.49-14.43L86.49-14.43Q86.35-14.09 86.23-13.93 86.1-13.77 85.83-13.7 85.57-13.62 85.09-13.61 84.61-13.6 83.76-13.57L83.76-13.57 80.37-13.5 79.68-6.03 92.21-6.03 92.21-5.08Q92.16-5.03 91.79-4.43 91.43-3.83 90.94-3 90.45-2.17 89.91-1.33 89.37-0.49 89.01 0.02L89.01 0.02Q88.76 0.46 88.45 0.72 88.13 0.98 87.75 1.1 87.37 1.22 86.92 1.25 86.47 1.27 85.93 1.27L85.93 1.27Q83.74 1.27 81.35 1.17 78.97 1.07 76.61 0.93 74.24 0.78 71.98 0.6 69.72 0.42 67.79 0.22L67.79 0.22Q67.62 0.2 67.49 0.02 67.35-0.15 67.35-0.37L67.35-0.37Q67.26-0.37 67.49-0.78 67.72-1.2 68.13-1.86 68.55-2.51 69.05-3.36 69.55-4.2 70.01-5.05L70.01-5.05 70.41-10.55Q70.5-11.94 70.56-12.62 70.62-13.31 70.62-13.35L70.62-13.35Q69.16-13.38 68.44-13.5 67.72-13.62 67.72-14.04L67.72-14.04Q67.72-14.23 68.07-14.77 68.43-15.31 68.94-16 69.45-16.7 70.03-17.46 70.6-18.21 71.04-18.85L71.04-18.85 71.65-27.15 71.58-27.15Q71.04-27.12 70.6-27.11 70.16-27.1 69.79-27.1L69.79-27.1Q68.62-27.1 68.12-27.23 67.62-27.37 67.62-27.73L67.62-27.73Q67.62-27.91 67.91-28.44 68.21-28.98 68.65-29.68 69.09-30.37 69.58-31.14 70.06-31.91 70.45-32.57L70.45-32.57 71.92-35.06 82.12-35.06 94.16-35.94Q94.18-35.94 94.29-35.93 94.4-35.91 94.53-35.85 94.65-35.79 94.76-35.64 94.87-35.5 94.87-35.23L94.87-35.23 94.5-33.96Q94.33-33.42 94.09-32.82 93.84-32.23 93.55-31.59L93.55-31.59 92.48-28.76Q92.3-28.34 92.08-28.13 91.87-27.91 91.16-27.88L91.16-27.88Q89.3-27.83 87.02-27.72 84.74-27.61 81.78-27.51L81.78-27.51Q81.68-27.17 81.68-26.97 81.68-26.76 81.64-26.17L81.64-26.17 81.51-25.05Q81.46-24.27 81.37-23.36 81.27-22.46 81.12-21.14L81.12-21.14Q82.37-21.19 83.55-21.24 84.74-21.29 85.71-21.33 86.69-21.36 87.41-21.39 88.13-21.41 88.42-21.41L88.42-21.41Q88.62-21.41 88.86-21.26 89.11-21.12 89.11-20.7L89.11-20.7Q89.11-20.51 89.03-20.26ZM118.57-0.37L118.15-9.08Q118.15-9.11 118.14-9.13 118.13-9.16 118.13-9.18L118.13-9.18Q118.13-9.59 118.57-9.59L118.57-9.59Q118.79-9.59 119.05-9.38L119.05-9.38Q120.37-8.13 121.98-7.4 123.6-6.67 125.5-6.67L125.5-6.67Q126.01-6.67 126.67-6.77 127.33-6.88 127.92-7.14 128.5-7.4 128.91-7.81 129.31-8.23 129.31-8.86L129.31-8.86Q129.31-9.57 128.97-10.13 128.63-10.69 128.06-11.08L128.06-11.08Q127.84-11.23 127.4-11.57 126.97-11.91 126.4-12.35 125.84-12.79 125.23-13.29 124.62-13.79 124.07-14.25 123.52-14.7 123.08-15.06 122.64-15.43 122.42-15.63L122.42-15.63Q120.98-16.7 120.14-17.8 119.3-18.9 118.86-20.09 118.42-21.29 118.3-22.57 118.18-23.85 118.18-25.29L118.18-25.29Q118.18-27.44 119.2-29.37 120.23-31.3 122.09-32.73 123.96-34.16 126.57-35 129.19-35.84 132.38-35.84L132.38-35.84Q132.78-35.84 133.56-35.75 134.34-35.67 135.28-35.47 136.22-35.28 137.19-34.94 138.17-34.59 138.98-34.06L138.98-34.06Q139.25-33.86 139.4-33.67 139.56-33.47 139.61-33.06L139.61-33.06Q139.73-31.08 139.81-29.16 139.88-27.25 140-25.1L140-25.1Q140-24.68 139.83-24.55 139.66-24.41 139.39-24.41L139.39-24.41Q139.12-24.41 138.98-24.56L138.98-24.56Q138.27-25.27 137.51-25.95 136.76-26.64 135.93-27.16 135.09-27.69 134.15-28 133.22-28.32 132.12-28.32L132.12-28.32Q131.46-28.32 130.8-28.21 130.14-28.1 129.6-27.81 129.06-27.51 128.74-27 128.41-26.49 128.41-25.71L128.41-25.71Q128.41-24.88 128.61-24.27 128.82-23.66 129.65-23.12L129.65-23.12 135.51-19.14Q137.12-17.99 138.12-16.86 139.12-15.72 139.68-14.6 140.25-13.48 140.45-12.39 140.66-11.3 140.66-10.25L140.66-10.25Q140.66-8.54 140.1-7.03 139.54-5.52 138.56-4.24 137.59-2.95 136.28-1.94 134.97-0.93 133.48-0.21 131.99 0.51 130.4 0.89 128.8 1.27 127.26 1.27L127.26 1.27Q126.06 1.27 124.9 1.23 123.74 1.2 122.64 1.04 121.55 0.88 120.52 0.55 119.49 0.22 118.57-0.37L118.57-0.37ZM167.12-32.15L167.12-32.15Q167.12-33.03 167.28-33.36 167.44-33.69 167.93-33.81L167.93-33.81 176.33-35.84Q176.65-35.94 176.99-35.94L176.99-35.94Q177.33-35.94 177.45-35.73 177.57-35.52 177.57-34.89L177.57-34.89 177.28-31.05Q177.16-29.37 177.01-27.71 176.86-26.05 176.57-24.8L176.57-24.8 176.13-21.34Q175.94-19.8 175.77-18.01 175.6-16.21 175.4-13.99L175.4-13.99 174.25-1.95Q174.23-1.73 174.15-1.51 174.08-1.29 173.84-1.2L173.84-1.2Q173.67-1.12 173.04-0.88 172.42-0.63 171.57-0.32 170.71 0 169.74 0.35 168.76 0.71 167.88 1 167 1.29 166.32 1.49 165.63 1.68 165.39 1.68L165.39 1.68Q165.05 1.68 164.79 1.5 164.54 1.32 164.54 0.81L164.54 0.81Q164.54-2.15 164.88-5.24 165.22-8.33 165.49-11.38L165.49-11.38Q165.54-11.72 165.52-12.01 165.51-12.3 165.56-12.65L165.56-12.65 156.63-12.65 155.62-1.95Q155.6-1.73 155.54-1.53 155.48-1.32 155.21-1.2L155.21-1.2Q155.11-1.15 154.25-0.84 153.38-0.54 152.24-0.13 151.11 0.27 150 0.67 148.89 1.07 148.3 1.29L148.3 1.29Q148.01 1.42 147.58 1.55 147.15 1.68 146.74 1.68L146.74 1.68Q146.4 1.68 146.14 1.49 145.88 1.29 145.88 0.78L145.88 0.78Q145.88-0.39 145.97-1.89 146.05-3.39 146.18-5.04 146.3-6.69 146.47-8.42 146.64-10.16 146.81-11.84L146.81-11.84 146.86-12.55Q144.88-12.55 143.99-12.66 143.1-12.77 143.1-13.23L143.1-13.23Q143.1-13.55 143.47-14.06L143.47-14.06Q143.95-14.75 144.6-15.71 145.25-16.67 145.85-17.61 146.44-18.55 146.92-19.3 147.4-20.04 147.54-20.26L147.54-20.26 148.11-26.15Q148.11-26.2 148.15-26.88 148.2-27.56 148.28-28.5 148.35-29.44 148.43-30.44 148.52-31.45 148.59-32.15L148.59-32.15Q148.64-33.01 148.73-33.35 148.81-33.69 149.3-33.81L149.3-33.81 157.6-35.84Q157.92-35.94 158.26-35.94L158.26-35.94Q158.6-35.94 158.73-35.73 158.85-35.52 158.85-34.89L158.85-34.89Q158.68-33.13 158.58-31.69 158.48-30.25 158.37-29 158.26-27.76 158.14-26.64 158.02-25.51 157.8-24.34L157.8-24.34 157.31-20.56 166.17-20.65Q166.39-23.9 166.66-26.17 166.93-28.44 167-29.76L167-29.76Q167.07-31.01 167.1-31.54 167.12-32.08 167.12-32.15ZM191.19-16.65L191.19-16.65Q191.19-14.89 191.57-13.12 191.95-11.35 192.83-9.94 193.71-8.52 195.15-7.64 196.59-6.76 198.71-6.76L198.71-6.76Q200.35-6.86 201.58-7.43 202.81-8.01 203.71-8.92 204.6-9.84 205.18-11.02 205.77-12.21 206.11-13.51 206.45-14.82 206.59-16.19 206.72-17.55 206.72-18.82L206.72-18.82Q206.72-20.56 206.26-22.18 205.79-23.8 204.87-25.05 203.94-26.29 202.56-27.05 201.18-27.81 199.35-27.81L199.35-27.81Q197.91-27.81 196.75-27.27 195.59-26.73 194.68-25.84 193.78-24.95 193.13-23.79 192.49-22.63 192.06-21.4 191.63-20.17 191.43-18.93 191.22-17.7 191.19-16.65ZM195.95 1.27L195.95 1.27Q192.29 1.27 189.41-0.1 186.53-1.46 184.54-3.8 182.55-6.13 181.49-9.19 180.43-12.26 180.43-15.67L180.43-15.67Q180.43-19.51 181.51-22.74 182.6-25.98 184.55-28.48 186.51-30.98 189.2-32.7 191.9-34.42 195.12-35.25L195.12-35.25Q195.42-35.25 195.58-35.72 195.73-36.18 195.86-36.74 195.98-37.3 196.15-37.77 196.32-38.23 196.64-38.23L196.64-38.23Q201.37-37.74 205.16-36.56 208.94-35.38 211.58-33.18 214.22-30.98 215.62-27.62 217.02-24.27 217.02-19.43L217.02-19.43Q217.02-16.33 216.27-13.6 215.51-10.86 214.14-8.56 212.78-6.25 210.86-4.43 208.94-2.61 206.6-1.34 204.25-0.07 201.56 0.6 198.86 1.27 195.95 1.27ZM241.92-20.26L241.92-20.26Q241.83-19.92 241.56-19.3 241.29-18.68 240.93-17.9 240.58-17.11 240.18-16.22 239.77-15.33 239.38-14.43L239.38-14.43Q239.24-14.09 239.12-13.93 238.99-13.77 238.73-13.7 238.46-13.62 237.98-13.61 237.5-13.6 236.65-13.57L236.65-13.57 233.26-13.5 232.57-6.03 245.1-6.03 245.1-5.08Q245.05-5.03 244.68-4.43 244.32-3.83 243.83-3 243.34-2.17 242.8-1.33 242.27-0.49 241.9 0.02L241.9 0.02Q241.65 0.46 241.34 0.72 241.02 0.98 240.64 1.1 240.26 1.22 239.81 1.25 239.36 1.27 238.82 1.27L238.82 1.27Q236.63 1.27 234.25 1.17 231.86 1.07 229.5 0.93 227.13 0.78 224.87 0.6 222.61 0.42 220.68 0.22L220.68 0.22Q220.51 0.2 220.38 0.02 220.24-0.15 220.24-0.37L220.24-0.37Q220.15-0.37 220.38-0.78 220.61-1.2 221.02-1.86 221.44-2.51 221.94-3.36 222.44-4.2 222.9-5.05L222.9-5.05 223.3-10.55Q223.39-11.94 223.45-12.62 223.52-13.31 223.52-13.35L223.52-13.35Q222.05-13.38 221.33-13.5 220.61-13.62 220.61-14.04L220.61-14.04Q220.61-14.23 220.96-14.77 221.32-15.31 221.83-16 222.34-16.7 222.92-17.46 223.49-18.21 223.93-18.85L223.93-18.85 224.54-27.15 224.47-27.15Q223.93-27.12 223.49-27.11 223.05-27.1 222.69-27.1L222.69-27.1Q221.51-27.1 221.01-27.23 220.51-27.37 220.51-27.73L220.51-27.73Q220.51-27.91 220.81-28.44 221.1-28.98 221.54-29.68 221.98-30.37 222.47-31.14 222.95-31.91 223.34-32.57L223.34-32.57 224.81-35.06 235.01-35.06 247.05-35.94Q247.07-35.94 247.18-35.93 247.29-35.91 247.42-35.85 247.54-35.79 247.65-35.64 247.76-35.5 247.76-35.23L247.76-35.23 247.39-33.96Q247.22-33.42 246.98-32.82 246.73-32.23 246.44-31.59L246.44-31.59 245.37-28.76Q245.19-28.34 244.98-28.13 244.76-27.91 244.05-27.88L244.05-27.88Q242.19-27.83 239.91-27.72 237.63-27.61 234.67-27.51L234.67-27.51Q234.57-27.17 234.57-26.97 234.57-26.76 234.53-26.17L234.53-26.17 234.4-25.05Q234.36-24.27 234.26-23.36 234.16-22.46 234.01-21.14L234.01-21.14Q235.26-21.19 236.44-21.24 237.63-21.29 238.6-21.33 239.58-21.36 240.3-21.39 241.02-21.41 241.31-21.41L241.31-21.41Q241.51-21.41 241.75-21.26 242-21.12 242-20.7L242-20.7Q242-20.51 241.92-20.26ZM273.71-15.48L272.51-1.95Q272.48-1.73 272.42-1.53 272.36-1.32 272.09-1.2L272.09-1.2Q272-1.15 271.13-0.84 270.26-0.54 269.13-0.13 267.99 0.27 266.88 0.67 265.77 1.07 265.18 1.29L265.18 1.29Q264.89 1.42 264.46 1.55 264.04 1.68 263.62 1.68L263.62 1.68Q263.28 1.68 263.02 1.51 262.77 1.34 262.77 0.88L262.77 0.88Q262.77-0.2 262.83-1.09 262.89-1.98 262.99-2.95 263.09-3.93 263.2-5.11 263.31-6.3 263.4-7.93L263.4-7.93Q263.52-10.08 263.67-12.07 263.82-14.06 263.96-16.21L263.96-16.21 264.31-20.39Q264.38-21.41 264.45-22.47 264.53-23.54 264.6-24.66L264.6-24.66 264.87-27.64Q264.87-27.69 264.72-27.69L264.72-27.69Q264.53-27.69 264.06-27.6 263.6-27.51 262.96-27.39 262.33-27.27 261.56-27.14 260.79-27 259.98-26.88L259.98-26.88Q259.79-26.88 259.61-26.97 259.42-27.05 259.42-27.17L259.42-27.17Q259.42-27.27 259.47-27.32L259.47-27.32 263.43-34.23Q264.77-34.52 266.32-34.83 267.87-35.13 269.65-35.38 271.43-35.62 273.44-35.78 275.44-35.94 277.68-35.94L277.68-35.94Q280.22-35.89 282.63-35.44 285.03-34.99 286.9-33.92 288.77-32.86 289.9-31.04 291.04-29.22 291.04-26.44L291.04-26.44Q291.04-24.9 290.51-23.61 289.99-22.31 289.17-21.28 288.35-20.24 287.38-19.45 286.4-18.65 285.51-18.09 284.62-17.53 283.93-17.2 283.25-16.87 283.01-16.77L283.01-16.77Q283.01-16.72 283.04-16.65 283.08-16.58 283.2-16.37 283.32-16.16 283.56-15.78 283.79-15.41 284.15-14.75L284.15-14.75Q284.55-14.16 285.08-13.18 285.62-12.21 286.36-10.88 287.11-9.55 288.09-7.91 289.06-6.27 290.33-4.39L290.33-4.39Q290.75-4.03 291.28-3.94 291.82-3.86 292.28-3.85 292.75-3.83 293.07-3.8 293.38-3.76 293.38-3.49L293.38-3.49Q293.38-3.3 292.98-3.04 292.58-2.78 292.04-2.51 291.5-2.25 290.95-2 290.4-1.76 290.11-1.61L290.11-1.61Q289.53-1.32 288.89-1.05 288.26-0.78 287.52-0.45 286.79-0.12 285.9 0.32 285.01 0.76 283.89 1.37L283.89 1.37Q283.59 1.54 283.34 1.6 283.08 1.66 282.86 1.66L282.86 1.66Q282.42 1.66 282.1 1.45 281.79 1.25 281.57 0.95 281.35 0.66 281.21 0.35 281.08 0.05 280.98-0.15L280.98-0.15 273.71-15.48ZM274.98-28.86L274-18.48Q275.24-18.48 276.59-19.12 277.93-19.75 279.03-20.75 280.13-21.75 280.83-23.02 281.54-24.29 281.54-25.59L281.54-25.59Q281.54-29.13 277.29-29.13L277.29-29.13Q276.49-29.13 275.95-29.02 275.41-28.91 274.98-28.86L274.98-28.86ZM294.04-1.78L294.04-1.78Q294.36-2.42 294.7-3.21 295.04-4 295.33-4.93L295.33-4.93 295.99-6.54Q295.55-7.2 295.1-7.97 294.65-8.74 294.28-9.55 293.92-10.35 293.69-11.16 293.45-11.96 293.45-12.72L293.45-12.72Q293.45-12.77 293.83-12.81 294.21-12.84 294.78-12.87 295.36-12.89 296.03-12.9 296.7-12.92 297.27-12.93 297.85-12.94 298.23-12.95 298.61-12.96 298.61-12.96L298.61-12.96Q299.17-14.43 299.7-15.75 300.24-17.07 300.78-18.41 301.32-19.75 301.85-21.15 302.39-22.56 302.93-24.17L302.93-24.17Q303.95-27.2 304.93-29.49 305.91-31.79 306.76-33.76L306.76-33.76Q306.86-34.01 307.09-34.22 307.32-34.42 307.59-34.57 307.86-34.72 308.11-34.81 308.37-34.91 308.52-34.96L308.52-34.96Q308.62-34.99 309.26-35.18 309.91-35.38 310.74-35.6 311.57-35.82 312.39-35.99 313.2-36.16 313.69-36.16L313.69-36.16 314.13-36.16Q314.52-36.16 314.88-35.97 315.23-35.79 315.35-35.25L315.35-35.25Q316.53-32.25 317.86-28.7 319.19-25.15 320.46-20.87L320.46-20.87Q321.14-18.58 321.8-16.53 322.46-14.48 323.12-12.52 323.78-10.57 324.45-8.62 325.12-6.67 325.83-4.59L325.83-4.59Q326.05-3.71 326.28-3.2 326.51-2.69 326.71-2.39 326.9-2.1 327.02-1.97 327.15-1.83 327.15-1.68L327.15-1.68Q327.15-1.54 326.68-1.39L326.68-1.39 321.43 0.32Q320.85 0.54 320.24 0.76 319.63 0.98 319.09 1.15 318.55 1.32 318.15 1.43 317.75 1.54 317.58 1.54L317.58 1.54 317.43 1.54Q317.09 1.54 316.94 1.33 316.79 1.12 316.74 0.93L316.74 0.93Q316.5 0.12 316.26-0.52 316.01-1.17 315.78-1.82 315.55-2.47 315.32-3.2 315.08-3.93 314.87-4.93L314.87-4.93Q314.82-5.05 314.6-5.14 314.38-5.22 314.07-5.27 313.77-5.32 313.42-5.33 313.08-5.35 312.79-5.35L312.79-5.35Q311.86-5.35 311.29-5.33 310.71-5.32 310.28-5.31 309.84-5.3 309.43-5.29 309.03-5.27 308.44-5.27L308.44-5.27Q307.74-5.27 306.99-5.29 306.25-5.3 305.64-5.32L305.64-5.32 304.24-5.37Q303.61-3.61 302.98-2.08 302.34-0.54 301.61 1.1L301.61 1.1Q301.56 1.29 301.38 1.42 301.19 1.54 301 1.54L301 1.54Q300.85 1.54 300.83 1.51L300.83 1.51Q298.46 0.66 296.85-0.17 295.24-1 294.04-1.78ZM310.49-23.73L310.49-23.73Q309.91-21.56 309.34-19.79 308.76-18.02 308.29-16.65 307.81-15.28 307.47-14.34 307.13-13.4 306.98-12.89L306.98-12.89 306.98-12.67Q306.98-12.52 306.95-12.48L306.95-12.48 312.81-12.48Q312.55-13.67 312.24-14.89 311.94-16.11 311.64-17.46 311.35-18.8 311.06-20.34 310.76-21.88 310.49-23.73ZM328.29-16.5L328.29-16.5Q328.29-19.19 328.94-21.67 329.58-24.15 330.78-26.29 331.98-28.44 333.67-30.2 335.37-31.96 337.47-33.22 339.57-34.47 342.02-35.16 344.48-35.84 347.19-35.84L347.19-35.84Q349.34-35.84 350.96-35.56 352.58-35.28 353.79-34.85 355-34.42 355.82-33.91 356.64-33.4 357.17-32.93L357.17-32.93Q357.15-32.93 357.15-32.76L357.15-32.76Q357.15-32.4 357.21-31.42 357.27-30.44 357.36-29.25 357.44-28.05 357.5-26.82 357.56-25.59 357.56-24.68L357.56-24.68Q357.56-24.54 357.47-24.35 357.37-24.17 356.98-24.17L356.98-24.17Q356.76-24.17 356.44-24.24L356.44-24.24Q355.93-24.39 355.15-24.91 354.36-25.44 353.33-26.01 352.29-26.59 351.01-27.04 349.73-27.49 348.21-27.49L348.21-27.49Q346.21-27.49 344.57-26.7 342.94-25.9 341.79-24.51 340.64-23.12 340.01-21.2 339.37-19.29 339.37-17.02L339.37-17.02Q339.37-15.01 339.81-13.2 340.25-11.38 341.14-10.01 342.04-8.64 343.37-7.82 344.7-7.01 346.45-7.01L346.45-7.01Q347.85-7.01 348.92-7.1 349.99-7.2 350.92-7.42 351.85-7.64 352.74-8.01 353.63-8.37 354.66-8.94L354.66-8.94Q354.71-8.96 354.9-8.96L354.9-8.96Q355.07-8.96 355.13-8.83 355.19-8.69 355.19-8.28L355.19-8.28 355.19-5.35Q355.19-4.54 355.18-3.77 355.17-3 355.16-2.39 355.15-1.78 355.13-1.4 355.12-1.03 355.1-1.03L355.1-1.03Q353.97-0.32 352.69 0.13 351.41 0.59 350.06 0.84 348.7 1.1 347.33 1.18 345.97 1.27 344.7 1.27L344.7 1.27Q341.25 1.27 338.25-0.04 335.25-1.34 333.04-3.69 330.83-6.03 329.56-9.3 328.29-12.57 328.29-16.5ZM372.92-34.94L372.92-34.94Q372.87-34.57 372.82-33.78 372.77-32.98 372.68-31.96 372.6-30.93 372.53-29.77 372.45-28.61 372.37-27.53 372.28-26.44 372.2-25.54 372.11-24.63 372.06-24.1L372.06-24.1 373.31-25.37 376.77-29.66Q377.41-30.47 378.04-31.24 378.68-32.01 379.18-32.63 379.68-33.25 380-33.67 380.31-34.08 380.36-34.13L380.36-34.13 391.2-35.03Q391.25-35.06 391.42-35.06L391.42-35.06 391.62-35.06Q392.18-35.06 392.18-34.77L392.18-34.77Q392.18-34.59 392.02-34.36 391.86-34.13 391.54-33.76L391.54-33.76Q391.15-33.3 390.41-32.43 389.66-31.57 388.79-30.53 387.91-29.49 386.97-28.38 386.03-27.27 385.22-26.33 384.42-25.39 383.84-24.71 383.27-24.02 383.12-23.83L383.12-23.83 381.58-22.36Q380.02-20.87 377.58-18.65L377.58-18.65Q378.34-17.87 379.2-16.96 380.07-16.04 380.86-15.2 381.66-14.36 382.3-13.67 382.95-12.99 383.27-12.65L383.27-12.65 390.81-3.91Q390.93-3.76 391.13-3.66 391.32-3.56 391.52-3.49 391.72-3.42 391.85-3.33 391.98-3.25 391.98-3.13L391.98-3.13Q391.98-2.98 391.67-2.66L391.67-2.66Q391.47-2.47 390.93-2.09 390.4-1.71 389.68-1.27 388.96-0.83 388.13-0.37 387.3 0.1 386.53 0.48 385.76 0.85 385.11 1.1 384.46 1.34 384.12 1.34L384.12 1.34Q383.61 1.34 383.05 0.89 382.49 0.44 381.71-0.48 380.92-1.39 379.85-2.81 378.78-4.22 377.26-6.13L377.26-6.13Q376.38-7.23 375.55-8.29 374.72-9.35 373.99-10.29 373.26-11.23 372.66-11.98 372.06-12.72 371.67-13.18L371.67-13.18Q371.48-12.99 371.26-12.81 371.04-12.62 370.84-12.43L370.84-12.43 369.99-1.95Q369.96-1.73 369.9-1.51 369.84-1.29 369.57-1.2L369.57-1.2 362.66 1.29Q362.39 1.39 361.95 1.54 361.52 1.68 361.1 1.68L361.1 1.68Q360.73 1.68 360.49 1.49 360.25 1.29 360.25 0.78L360.25 0.78Q360.37-0.66 360.55-2.95 360.73-5.25 360.94-8.19 361.15-11.13 361.38-14.61 361.61-18.09 361.88-21.92L361.88-21.92 362.57-32.2Q362.59-32.64 362.61-32.93 362.64-33.23 362.69-33.42 362.74-33.62 362.86-33.72 362.98-33.81 363.22-33.86L363.22-33.86 371.67-35.89Q371.99-35.99 372.33-35.99L372.33-35.99Q372.67-35.99 372.79-35.78 372.92-35.57 372.92-34.94Z" opacity="1" transform="matrix(1,0,0,1,0,0)" fill="#000000" class="wordmark-text-0" data-fill-palette-color="primary" id="text-0"></path></svg></g></svg></g></svg></g></svg></g><g transform="matrix(1,0,0,1,142.05593651381892,0)"><svg viewBox="0 0 113.3857269723621 55.926478498122655" height="55.926478498122655" width="113.3857269723621"><g><svg xmlns="http://www.w3.org/2000/svg" xmlns:xlink="http://www.w3.org/1999/xlink" xml:space="preserve" style="shape-rendering:geometricPrecision;text-rendering:geometricPrecision;image-rendering:optimizeQuality;" viewBox="0.00005075480770748626 0.00006680641838767432 65.40854533864807 37.56268724587881" x="8" y="0" fill-rule="evenodd" clip-rule="evenodd" width="97.3857269723621" height="55.926478498122655" class="icon-icon-0" data-fill-palette-color="accent" id="icon-0"><g fill="#25c0a1" data-fill-palette-color="accent"><path class="" d="M2.847 3.071c0.092 0.554 0.181 1.112 0.263 1.672 0.644 4.357 0.929 8.884-0.487 13.044-1.268 3.722-2.427 7.315-2.199 11.226-0.036 0.811-0.289 1.237-0.346 2.074-0.035 0.507-0.056 1.004-0.069 1.404-0.034 1.066 0.025 1.354 0.206 2.153 0.077 0.346 0.226 0.477 0.447 0.595 2.316 1.301 7.567 1.889 11.119 1.742 0.863-0.036 1.625-0.067 2.2-0.071 0.007 0 0.015 0 0.023 0 2.856-0.106 6.939-0.168 10.881-0.137 3.223 0.026 6.359 0.115 8.659 0.294l0 0c2.422 0.245 4.323 0.379 6.212 0.444 1.882 0.065 3.75 0.061 6.112 0.029 3.196 0.039 6.859-0.46 10.159-1.168 3.737-0.801 7.03-1.875 8.669-2.741 0.473-0.233 0.563-0.567 0.625-0.907 0.082-0.722 0.119-1.48 0.055-2.31-0.065-0.852-0.236-1.778-0.571-2.818-0.101-0.298-0.294-0.726-0.725-1.021-2.321-1.673-5.456-1.304-8.159-1.264-0.458 0.012-0.977 0.069-1.473 0.087l-0.006-0.009c-0.095 0.004-0.191 0.007-0.286 0.01-0.452-0.095-1.415-0.314-2.232-0.5-0.749-0.171-1.19 0.55-1.318 1.236-0.005 0.044-0.013 0.087-0.021 0.131-0.155 0.753-0.857 1.267-1.642 1.153-0.786-0.113-1.317-0.856-1.215-1.658 0.12-0.948-0.048-1.94-1.513-2.426-0.44-0.146-0.833-0.309-1.226-0.479-1.21-0.52-1.981-0.324-2.694 1.401-0.017 0.041-0.036 0.08-0.055 0.12-0.351 0.684-1.166 0.99-1.893 0.669-0.726-0.32-1.087-1.196-0.748-1.93 0.593-1.285 0.932-2.294-0.522-3.114-0.325-0.184-0.621-0.391-0.928-0.575-1.057-0.634-1.886-1.191-3.216 0.324l-0.601 0.741c-0.027 0.035-0.056 0.068-0.085 0.101-0.522 0.565-1.4 0.632-2.003 0.138-0.625-0.512-0.717-1.435-0.204-2.06 0.161-0.196 0.32-0.395 0.483-0.59 0.789-0.947 1.364-2.084-0.328-3.697-1.139-1.086-1.879-1.567-3.77 0.002l-0.628 0.528c-0.033 0.029-0.068 0.056-0.103 0.083-0.619 0.456-1.494 0.355-1.993-0.244-0.517-0.622-0.432-1.545 0.191-2.062 0.321-0.267 0.632-0.547 0.962-0.801 1.967-1.517 0.894-2.75 0.123-3.596-0.904-0.992-1.552-1.802-3.56-0.289l-0.746 0.603c-0.034 0.029-0.069 0.055-0.105 0.082-0.628 0.444-1.501 0.327-1.987-0.282-0.505-0.631-0.403-1.552 0.228-2.057 0.449-0.359 0.877-0.745 1.345-1.08 1.523-1.091 0.226-3.505-0.641-4.524-0.811-0.953-1.308-0.887-2.371-0.398-0.838 0.386-1.881 1.2-2.447 2.129-2.066 2.986-5.124-0.215-8.107-0.631-1.743-0.243-6.72-1.562-5.739 1.224z m-0.779 27.158c1.691 0.316 4.381 1.662 8.618 1.572 6.634-0.14 13.799-1.071 21.034-0.1 11.462 1.537 18.055 0.866 23.468-1.579 0.535-0.079 0.855-0.952 0.742-1.361-0.21-0.79-0.511-1.614-0.83-2.238-0.057-0.364 0.415-0.349 0.892-0.369 3.682-0.101 5.569-0.219 7.315 0.946 0.402 0.268 0.566 0.474 0.671 0.813 0.292 0.943 0.449 1.783 0.508 2.557 0.151 1.974-0.131 2.416-1.614 3.01-1.706 0.683-4.172 1.41-7 2.016-3.26 0.699-6.868 1.192-10.001 1.153l-0.008 0-0.002 0c-2.349 0.032-4.207-0.105-6.082-0.17-5.036-0.174-9.662-0.554-14.888-0.596-4.339-0.035-8.816 0.03-13.139 0.208-2.972 0.122-6.918-0.277-9.339-1.089-1.148-0.385-1.222-0.459-1.3-1.604-0.063-0.924-0.068-2.318 0.166-2.732 0.217-0.385 0.557-0.449 0.789-0.437z m11.573-20.256c-3.652 0-6.612 2.96-6.611 6.612 0 3.652 2.96 6.612 6.611 6.612 3.652 0 6.612-2.96 6.612-6.612 0-3.652-2.96-6.612-6.612-6.612z" fill="#25c0a1" data-fill-palette-color="accent"></path></g></svg></g></svg></g><g><rect width="65.52281651381895" height="3.649426589787635" y="51.27705190833502" x="255.44166348618103" fill="#b4ddcf" data-fill-palette-color="secondary"></rect><rect width="65.52281651381895" height="3.649426589787635" y="51.27705190833502" x="76.53311999999997" fill="#b4ddcf" data-fill-palette-color="secondary"></rect></g></svg></g><defs></defs></svg><rect width="395.52" height="118.55784608467093" fill="none" stroke="none" visibility="hidden"></rect></g></svg></g></svg>